<?xml version="1.0" encoding="UTF-8"?>
<!DOCTYPE svg PUBLIC "-//W3C//DTD SVG 1.1//EN" "http://www.w3.org/Graphics/SVG/1.1/DTD/svg11.dtd">
<svg xmlns="http://www.w3.org/2000/svg" version="1.1" width="30px" height="30px" style="shape-rendering:geometricPrecision; text-rendering:geometricPrecision; image-rendering:optimizeQuality; fill-rule:evenodd; clip-rule:evenodd" xmlns:xlink="http://www.w3.org/1999/xlink">
<g><path style="opacity:0.598" fill="#fefffe" d="M 4.5,3.5 C 9.15854,3.01463 10.4919,4.84796 8.5,9C 3.72816,9.81044 2.39483,7.97711 4.5,3.5 Z"/></g>
<g><path style="opacity:0.598" fill="#fefffe" d="M 12.5,3.5 C 17.1585,3.01463 18.4919,4.84796 16.5,9C 11.7282,9.81044 10.3948,7.97711 12.5,3.5 Z"/></g>
<g><path style="opacity:0.598" fill="#fefffe" d="M 20.5,3.5 C 25.1585,3.01463 26.4919,4.84796 24.5,9C 19.7282,9.81044 18.3948,7.97711 20.5,3.5 Z"/></g>
<g><path style="opacity:0.598" fill="#fefffe" d="M 4.5,11.5 C 9.15854,11.0146 10.4919,12.848 8.5,17C 3.72816,17.8104 2.39483,15.9771 4.5,11.5 Z"/></g>
<g><path style="opacity:0.598" fill="#fefffe" d="M 12.5,11.5 C 17.1585,11.0146 18.4919,12.848 16.5,17C 11.7282,17.8104 10.3948,15.9771 12.5,11.5 Z"/></g>
<g><path style="opacity:0.598" fill="#fefffe" d="M 20.5,11.5 C 25.1585,11.0146 26.4919,12.848 24.5,17C 19.7282,17.8104 18.3948,15.9771 20.5,11.5 Z"/></g>
<g><path style="opacity:0.598" fill="#fefffe" d="M 4.5,19.5 C 9.15854,19.0146 10.4919,20.848 8.5,25C 3.72816,25.8104 2.39483,23.9771 4.5,19.5 Z"/></g>
<g><path style="opacity:0.598" fill="#fefffe" d="M 12.5,19.5 C 17.1585,19.0146 18.4919,20.848 16.5,25C 11.7282,25.8104 10.3948,23.9771 12.5,19.5 Z"/></g>
<g><path style="opacity:0.598" fill="#fefffe" d="M 20.5,19.5 C 25.1585,19.0146 26.4919,20.848 24.5,25C 19.7282,25.8104 18.3948,23.9771 20.5,19.5 Z"/></g>
</svg>
