<svg width="36" height="36" viewBox="0 0 36 36" fill="none" xmlns="http://www.w3.org/2000/svg">
<path d="M6 25.5C5.175 25.5 4.46875 25.2063 3.88125 24.6188C3.29375 24.0312 3 23.325 3 22.5V10.725C3 10.35 3.10625 9.98125 3.31875 9.61875C3.53125 9.25625 3.825 8.975 4.2 8.775L15.75 3L27.075 8.775C27.375 8.925 27.6313 9.1625 27.8438 9.4875C28.0563 9.8125 28.2 10.15 28.275 10.5H23.8875L15.75 6.375L6 11.2125V25.5ZM10.5 31.5C9.675 31.5 8.96875 31.2063 8.38125 30.6188C7.79375 30.0313 7.5 29.325 7.5 28.5V15C7.5 14.175 7.79375 13.4688 8.38125 12.8813C8.96875 12.2938 9.675 12 10.5 12H30C30.825 12 31.5313 12.2938 32.1188 12.8813C32.7063 13.4688 33 14.175 33 15V28.5C33 29.325 32.7063 30.0313 32.1188 30.6188C31.5313 31.2063 30.825 31.5 30 31.5H10.5ZM20.25 23.025L10.5 18V28.5H30V18L20.25 23.025ZM20.25 20.025L30 15H10.5L20.25 20.025Z" fill="#5F6368"/>
</svg>
