<svg width="41" height="41" viewBox="0 0 41 41" fill="none" xmlns="http://www.w3.org/2000/svg">
<path d="M8.54167 30.4937C10.0792 28.9847 11.8658 27.796 13.9016 26.9276C15.9373 26.0592 18.1368 25.625 20.5 25.625C22.8632 25.625 25.0627 26.0592 27.0984 26.9276C29.1342 27.796 30.9208 28.9847 32.4583 30.4937V8.54167H8.54167V30.4937ZM20.5 22.2083C22.1514 22.2083 23.5608 21.6247 24.7281 20.4573C25.8955 19.2899 26.4792 17.8806 26.4792 16.2292C26.4792 14.5778 25.8955 13.1684 24.7281 12.001C23.5608 10.8337 22.1514 10.25 20.5 10.25C18.8486 10.25 17.4392 10.8337 16.2719 12.001C15.1045 13.1684 14.5208 14.5778 14.5208 16.2292C14.5208 17.8806 15.1045 19.2899 16.2719 20.4573C17.4392 21.6247 18.8486 22.2083 20.5 22.2083ZM8.54167 35.875C7.60208 35.875 6.79774 35.5405 6.12865 34.8714C5.45955 34.2023 5.125 33.3979 5.125 32.4583V8.54167C5.125 7.60208 5.45955 6.79774 6.12865 6.12865C6.79774 5.45955 7.60208 5.125 8.54167 5.125H32.4583C33.3979 5.125 34.2023 5.45955 34.8714 6.12865C35.5405 6.79774 35.875 7.60208 35.875 8.54167V32.4583C35.875 33.3979 35.5405 34.2023 34.8714 34.8714C34.2023 35.5405 33.3979 35.875 32.4583 35.875H8.54167ZM11.4885 32.4583H29.5115C28.2587 31.3479 26.8422 30.5009 25.262 29.9172C23.6818 29.3335 22.0944 29.0417 20.5 29.0417C18.9056 29.0417 17.304 29.3335 15.6953 29.9172C14.0866 30.5009 12.6844 31.3479 11.4885 32.4583ZM20.5 18.7917C19.7882 18.7917 19.1832 18.5425 18.6849 18.0443C18.1866 17.546 17.9375 16.941 17.9375 16.2292C17.9375 15.5174 18.1866 14.9123 18.6849 14.4141C19.1832 13.9158 19.7882 13.6667 20.5 13.6667C21.2118 13.6667 21.8168 13.9158 22.3151 14.4141C22.8134 14.9123 23.0625 15.5174 23.0625 16.2292C23.0625 16.941 22.8134 17.546 22.3151 18.0443C21.8168 18.5425 21.2118 18.7917 20.5 18.7917Z" fill="#5F6368"/>
</svg>
