<svg width="54" height="54" viewBox="0 0 54 54" fill="none" xmlns="http://www.w3.org/2000/svg">
<path d="M20.8127 49.5L19.9127 42.3C19.4252 42.1125 18.9658 41.8875 18.5346 41.625C18.1033 41.3625 17.6814 41.0812 17.2689 40.7812L10.5752 43.5938L4.3877 32.9062L10.1814 28.5187C10.1439 28.2562 10.1252 28.0031 10.1252 27.7594V26.2406C10.1252 25.9969 10.1439 25.7437 10.1814 25.4812L4.3877 21.0938L10.5752 10.4062L17.2689 13.2188C17.6814 12.9187 18.1127 12.6375 18.5627 12.375C19.0127 12.1125 19.4627 11.8875 19.9127 11.7L20.8127 4.5H33.1877L34.0877 11.7C34.5752 11.8875 35.0346 12.1125 35.4658 12.375C35.8971 12.6375 36.3189 12.9187 36.7314 13.2188L43.4252 10.4062L49.6127 21.0938L43.8189 25.4812C43.8564 25.7437 43.8752 25.9969 43.8752 26.2406V27.7594C43.8752 28.0031 43.8377 28.2562 43.7627 28.5187L49.5564 32.9062L43.3689 43.5938L36.7314 40.7812C36.3189 41.0812 35.8877 41.3625 35.4377 41.625C34.9877 41.8875 34.5377 42.1125 34.0877 42.3L33.1877 49.5H20.8127ZM24.7502 45H29.1939L29.9814 39.0375C31.1439 38.7375 32.2221 38.2969 33.2158 37.7156C34.2096 37.1344 35.1189 36.4312 35.9439 35.6062L41.5127 37.9125L43.7064 34.0875L38.8689 30.4312C39.0564 29.9062 39.1877 29.3531 39.2627 28.7719C39.3377 28.1906 39.3752 27.6 39.3752 27C39.3752 26.4 39.3377 25.8094 39.2627 25.2281C39.1877 24.6469 39.0564 24.0938 38.8689 23.5688L43.7064 19.9125L41.5127 16.0875L35.9439 18.45C35.1189 17.5875 34.2096 16.8656 33.2158 16.2844C32.2221 15.7031 31.1439 15.2625 29.9814 14.9625L29.2502 9H24.8064L24.0189 14.9625C22.8564 15.2625 21.7783 15.7031 20.7846 16.2844C19.7908 16.8656 18.8814 17.5687 18.0564 18.3937L12.4877 16.0875L10.2939 19.9125L15.1314 23.5125C14.9439 24.075 14.8127 24.6375 14.7377 25.2C14.6627 25.7625 14.6252 26.3625 14.6252 27C14.6252 27.6 14.6627 28.1812 14.7377 28.7437C14.8127 29.3062 14.9439 29.8687 15.1314 30.4312L10.2939 34.0875L12.4877 37.9125L18.0564 35.55C18.8814 36.4125 19.7908 37.1344 20.7846 37.7156C21.7783 38.2969 22.8564 38.7375 24.0189 39.0375L24.7502 45ZM27.1127 34.875C29.2877 34.875 31.1439 34.1062 32.6814 32.5687C34.2189 31.0312 34.9877 29.175 34.9877 27C34.9877 24.825 34.2189 22.9688 32.6814 21.4312C31.1439 19.8937 29.2877 19.125 27.1127 19.125C24.9002 19.125 23.0346 19.8937 21.5158 21.4312C19.9971 22.9688 19.2377 24.825 19.2377 27C19.2377 29.175 19.9971 31.0312 21.5158 32.5687C23.0346 34.1062 24.9002 34.875 27.1127 34.875Z" fill="#0C949C"/>
</svg>
