<svg width="24" height="24" viewBox="0 0 24 24" fill="none" xmlns="http://www.w3.org/2000/svg">
<g clip-path="url(#clip0_67_5)">
<path d="M15.5 5.05C14.95 5.05 14.4792 4.85417 14.0875 4.4625C13.6958 4.07083 13.5 3.6 13.5 3.05C13.5 2.5 13.6958 2.02917 14.0875 1.6375C14.4792 1.24583 14.95 1.05 15.5 1.05C16.05 1.05 16.5208 1.24583 16.9125 1.6375C17.3042 2.02917 17.5 2.5 17.5 3.05C17.5 3.6 17.3042 4.07083 16.9125 4.4625C16.5208 4.85417 16.05 5.05 15.5 5.05Z" fill="#427BC2"/>
<path d="M15.5 5.05C14.95 5.05 14.4792 4.85417 14.0875 4.4625C13.6958 4.07083 13.5 3.6 13.5 3.05C13.5 2.5 13.6958 2.02917 14.0875 1.6375C14.4792 1.24583 14.95 1.05 15.5 1.05C16.05 1.05 16.5208 1.24583 16.9125 1.6375C17.3042 2.02917 17.5 2.5 17.5 3.05C17.5 3.6 17.3042 4.07083 16.9125 4.4625C16.5208 4.85417 16.05 5.05 15.5 5.05Z" fill="#427BC2"/>
<path fill-rule="evenodd" clip-rule="evenodd" d="M19 21.55C17.6167 21.55 16.4375 21.0625 15.4625 20.0875C14.4875 19.1125 14 17.9333 14 16.55C14 15.1667 14.4875 13.9875 15.4625 13.0125C16.4375 12.0375 17.6167 11.55 19 11.55C20.3833 11.55 21.5625 12.0375 22.5375 13.0125C23.5125 13.9875 24 15.1667 24 16.55C24 17.9333 23.5125 19.1125 22.5375 20.0875C21.5625 21.0625 20.3833 21.55 19 21.55ZM21.125 18.675C20.5417 19.2583 19.8333 19.55 19 19.55C18.1667 19.55 17.4583 19.2583 16.875 18.675C16.2917 18.0917 16 17.3833 16 16.55C16 15.7167 16.2917 15.0083 16.875 14.425C17.4583 13.8417 18.1667 13.55 19 13.55C19.8333 13.55 20.5417 13.8417 21.125 14.425C21.7083 15.0083 22 15.7167 22 16.55C22 17.3833 21.7083 18.0917 21.125 18.675Z" fill="#427BC2"/>
<path fill-rule="evenodd" clip-rule="evenodd" d="M19 21.55C17.6167 21.55 16.4375 21.0625 15.4625 20.0875C14.4875 19.1125 14 17.9333 14 16.55C14 15.1667 14.4875 13.9875 15.4625 13.0125C16.4375 12.0375 17.6167 11.55 19 11.55C20.3833 11.55 21.5625 12.0375 22.5375 13.0125C23.5125 13.9875 24 15.1667 24 16.55C24 17.9333 23.5125 19.1125 22.5375 20.0875C21.5625 21.0625 20.3833 21.55 19 21.55ZM21.125 18.675C20.5417 19.2583 19.8333 19.55 19 19.55C18.1667 19.55 17.4583 19.2583 16.875 18.675C16.2917 18.0917 16 17.3833 16 16.55C16 15.7167 16.2917 15.0083 16.875 14.425C17.4583 13.8417 18.1667 13.55 19 13.55C19.8333 13.55 20.5417 13.8417 21.125 14.425C21.7083 15.0083 22 15.7167 22 16.55C22 17.3833 21.7083 18.0917 21.125 18.675Z" fill="#134371"/>
<path fill-rule="evenodd" clip-rule="evenodd" d="M11 13.55V18.55H13V12.35L10.8 10.05L13.2 7.65L14 8.45C14.6667 9.11667 15.4292 9.63333 16.2875 10C17.1458 10.3667 18.05 10.55 19 10.55V8.55C18.3333 8.55 17.7 8.41667 17.1 8.15C16.5 7.88333 15.9667 7.51667 15.5 7.05L13.6 5.15C13.4 4.95 13.1708 4.8 12.9125 4.7C12.6542 4.6 12.3833 4.55 12.1 4.55C11.8167 4.55 11.5458 4.6 11.2875 4.7C11.0292 4.8 10.8 4.95 10.6 5.15L7.8 7.95C7.61667 8.13333 7.47083 8.34583 7.3625 8.5875C7.25417 8.82917 7.2 9.08333 7.2 9.35C7.2 9.61667 7.25 9.87083 7.35 10.1125C7.45 10.3542 7.6 10.5667 7.8 10.75L11 13.55Z" fill="#427BC2"/>
<path fill-rule="evenodd" clip-rule="evenodd" d="M5 21.55C3.61667 21.55 2.4375 21.0625 1.4625 20.0875C0.4875 19.1125 0 17.9333 0 16.55C0 15.1667 0.4875 13.9875 1.4625 13.0125C2.4375 12.0375 3.61667 11.55 5 11.55C6.38333 11.55 7.5625 12.0375 8.5375 13.0125C9.5125 13.9875 10 15.1667 10 16.55C10 17.9333 9.5125 19.1125 8.5375 20.0875C7.5625 21.0625 6.38333 21.55 5 21.55ZM7.125 18.675C6.54167 19.2583 5.83333 19.55 5 19.55C4.16667 19.55 3.45833 19.2583 2.875 18.675C2.29167 18.0917 2 17.3833 2 16.55C2 15.7167 2.29167 15.0083 2.875 14.425C3.45833 13.8417 4.16667 13.55 5 13.55C5.83333 13.55 6.54167 13.8417 7.125 14.425C7.70833 15.0083 8 15.7167 8 16.55C8 17.3833 7.70833 18.0917 7.125 18.675Z" fill="#427BC2"/>
<path fill-rule="evenodd" clip-rule="evenodd" d="M5 21.55C3.61667 21.55 2.4375 21.0625 1.4625 20.0875C0.4875 19.1125 0 17.9333 0 16.55C0 15.1667 0.4875 13.9875 1.4625 13.0125C2.4375 12.0375 3.61667 11.55 5 11.55C6.38333 11.55 7.5625 12.0375 8.5375 13.0125C9.5125 13.9875 10 15.1667 10 16.55C10 17.9333 9.5125 19.1125 8.5375 20.0875C7.5625 21.0625 6.38333 21.55 5 21.55ZM7.125 18.675C6.54167 19.2583 5.83333 19.55 5 19.55C4.16667 19.55 3.45833 19.2583 2.875 18.675C2.29167 18.0917 2 17.3833 2 16.55C2 15.7167 2.29167 15.0083 2.875 14.425C3.45833 13.8417 4.16667 13.55 5 13.55C5.83333 13.55 6.54167 13.8417 7.125 14.425C7.70833 15.0083 8 15.7167 8 16.55C8 17.3833 7.70833 18.0917 7.125 18.675Z" fill="#134371"/>
</g>
<defs>
<clipPath id="clip0_67_5">
<rect width="24" height="24" fill="white"/>
</clipPath>
</defs>
</svg>
