<svg width="36" height="36" viewBox="0 0 36 36" fill="none" xmlns="http://www.w3.org/2000/svg">
<path d="M7.11111 34C6.25556 34 5.52315 33.6867 4.91389 33.06C4.30463 32.4333 4 31.68 4 30.8V8.4C4 7.52 4.30463 6.76667 4.91389 6.14C5.52315 5.51333 6.25556 5.2 7.11111 5.2H8.66667V2H11.7778V5.2H24.2222V2H27.3333V5.2H28.8889C29.7444 5.2 30.4769 5.51333 31.0861 6.14C31.6954 6.76667 32 7.52 32 8.4V30.8C32 31.68 31.6954 32.4333 31.0861 33.06C30.4769 33.6867 29.7444 34 28.8889 34H7.11111ZM7.11111 30.8H28.8889V14.8H7.11111V30.8ZM7.11111 11.6H28.8889V8.4H7.11111V11.6ZM18 21.2C17.5593 21.2 17.1898 21.0467 16.8917 20.74C16.5935 20.4333 16.4444 20.0533 16.4444 19.6C16.4444 19.1467 16.5935 18.7667 16.8917 18.46C17.1898 18.1533 17.5593 18 18 18C18.4407 18 18.8102 18.1533 19.1083 18.46C19.4065 18.7667 19.5556 19.1467 19.5556 19.6C19.5556 20.0533 19.4065 20.4333 19.1083 20.74C18.8102 21.0467 18.4407 21.2 18 21.2ZM11.7778 21.2C11.337 21.2 10.9676 21.0467 10.6694 20.74C10.3713 20.4333 10.2222 20.0533 10.2222 19.6C10.2222 19.1467 10.3713 18.7667 10.6694 18.46C10.9676 18.1533 11.337 18 11.7778 18C12.2185 18 12.588 18.1533 12.8861 18.46C13.1843 18.7667 13.3333 19.1467 13.3333 19.6C13.3333 20.0533 13.1843 20.4333 12.8861 20.74C12.588 21.0467 12.2185 21.2 11.7778 21.2ZM24.2222 21.2C23.7815 21.2 23.412 21.0467 23.1139 20.74C22.8157 20.4333 22.6667 20.0533 22.6667 19.6C22.6667 19.1467 22.8157 18.7667 23.1139 18.46C23.412 18.1533 23.7815 18 24.2222 18C24.663 18 25.0324 18.1533 25.3306 18.46C25.6287 18.7667 25.7778 19.1467 25.7778 19.6C25.7778 20.0533 25.6287 20.4333 25.3306 20.74C25.0324 21.0467 24.663 21.2 24.2222 21.2ZM18 27.6C17.5593 27.6 17.1898 27.4467 16.8917 27.14C16.5935 26.8333 16.4444 26.4533 16.4444 26C16.4444 25.5467 16.5935 25.1667 16.8917 24.86C17.1898 24.5533 17.5593 24.4 18 24.4C18.4407 24.4 18.8102 24.5533 19.1083 24.86C19.4065 25.1667 19.5556 25.5467 19.5556 26C19.5556 26.4533 19.4065 26.8333 19.1083 27.14C18.8102 27.4467 18.4407 27.6 18 27.6ZM11.7778 27.6C11.337 27.6 10.9676 27.4467 10.6694 27.14C10.3713 26.8333 10.2222 26.4533 10.2222 26C10.2222 25.5467 10.3713 25.1667 10.6694 24.86C10.9676 24.5533 11.337 24.4 11.7778 24.4C12.2185 24.4 12.588 24.5533 12.8861 24.86C13.1843 25.1667 13.3333 25.5467 13.3333 26C13.3333 26.4533 13.1843 26.8333 12.8861 27.14C12.588 27.4467 12.2185 27.6 11.7778 27.6ZM24.2222 27.6C23.7815 27.6 23.412 27.4467 23.1139 27.14C22.8157 26.8333 22.6667 26.4533 22.6667 26C22.6667 25.5467 22.8157 25.1667 23.1139 24.86C23.412 24.5533 23.7815 24.4 24.2222 24.4C24.663 24.4 25.0324 24.5533 25.3306 24.86C25.6287 25.1667 25.7778 25.5467 25.7778 26C25.7778 26.4533 25.6287 26.8333 25.3306 27.14C25.0324 27.4467 24.663 27.6 24.2222 27.6Z" fill="#5F6368"/>
</svg>
