<svg width="64" height="34" viewBox="0 0 64 34" fill="none" xmlns="http://www.w3.org/2000/svg">
<path d="M1.53409 24V13.0909H3.15341V14.7955H3.29545C3.52273 14.2131 3.88968 13.7609 4.39631 13.4389C4.90294 13.1122 5.51136 12.9489 6.22159 12.9489C6.94129 12.9489 7.54025 13.1122 8.01847 13.4389C8.50142 13.7609 8.87784 14.2131 9.14773 14.7955H9.26136C9.54072 14.232 9.95975 13.7846 10.5185 13.4531C11.0772 13.117 11.7472 12.9489 12.5284 12.9489C13.5038 12.9489 14.3016 13.2543 14.9219 13.8651C15.5421 14.4711 15.8523 15.4157 15.8523 16.6989V24H14.1761V16.6989C14.1761 15.8939 13.956 15.3187 13.5156 14.973C13.0753 14.6274 12.5568 14.4545 11.9602 14.4545C11.1932 14.4545 10.599 14.6866 10.1776 15.1506C9.75616 15.6098 9.54545 16.1922 9.54545 16.8977V24H7.84091V16.5284C7.84091 15.9081 7.63968 15.4086 7.23722 15.0298C6.83475 14.6463 6.31629 14.4545 5.68182 14.4545C5.24621 14.4545 4.83902 14.5705 4.46023 14.8026C4.08617 15.0346 3.78314 15.3565 3.55114 15.7685C3.32386 16.1757 3.21023 16.6468 3.21023 17.1818V24H1.53409Z" fill="white"/>
<path d="M62.2784 13.0909V14.5114H56.625V13.0909H62.2784ZM58.2727 10.4773H59.9489V20.875C59.9489 21.3485 60.0175 21.7036 60.1548 21.9403C60.2969 22.1723 60.4768 22.3286 60.6946 22.4091C60.9171 22.4848 61.1515 22.5227 61.3977 22.5227C61.5824 22.5227 61.7339 22.5133 61.8523 22.4943C61.9706 22.4706 62.0653 22.4517 62.1364 22.4375L62.4773 23.9432C62.3636 23.9858 62.205 24.0284 62.0014 24.071C61.7978 24.1184 61.5398 24.142 61.2273 24.142C60.7538 24.142 60.2898 24.0402 59.8352 23.8366C59.3854 23.633 59.0114 23.3229 58.7131 22.9062C58.4195 22.4896 58.2727 21.964 58.2727 21.3295V10.4773Z" fill="white"/>
<g clip-path="url(#clip0_122_17)">
<path d="M26.7917 24.7917C24.6194 24.7917 22.7778 24.0362 21.2667 22.525C19.7556 21.0139 19 19.1723 19 17C19 14.8278 19.7556 12.9862 21.2667 11.475C22.7778 9.96393 24.6194 9.20837 26.7917 9.20837C27.6653 9.20837 28.5035 9.36185 29.3062 9.66879C30.109 9.97574 30.8292 10.4125 31.4667 10.9792L33.875 13.175L31.75 15.0875L29.5542 13.1042C29.1764 12.7737 28.7514 12.5139 28.2792 12.325C27.8069 12.1362 27.3111 12.0417 26.7917 12.0417C25.4222 12.0417 24.2535 12.5257 23.2854 13.4938C22.3174 14.4618 21.8333 15.6306 21.8333 17C21.8333 18.3695 22.3174 19.5382 23.2854 20.5063C24.2535 21.4743 25.4222 21.9584 26.7917 21.9584C27.3111 21.9584 27.8069 21.8639 28.2792 21.675C28.7514 21.4862 29.1764 21.2264 29.5542 20.8959L40.5333 10.9792C41.1708 10.4125 41.891 9.97574 42.6937 9.66879C43.4965 9.36185 44.3347 9.20837 45.2083 9.20837C47.3806 9.20837 49.2222 9.96393 50.7333 11.475C52.2444 12.9862 53 14.8278 53 17C53 19.1723 52.2444 21.0139 50.7333 22.525C49.2222 24.0362 47.3806 24.7917 45.2083 24.7917C44.3347 24.7917 43.4965 24.6382 42.6937 24.3313C41.891 24.0243 41.1708 23.5875 40.5333 23.0209L38.125 20.825L40.25 18.9125L42.4458 20.8959C42.8236 21.2264 43.2486 21.4862 43.7208 21.675C44.1931 21.8639 44.6889 21.9584 45.2083 21.9584C46.5778 21.9584 47.7465 21.4743 48.7146 20.5063C49.6826 19.5382 50.1667 18.3695 50.1667 17C50.1667 15.6306 49.6826 14.4618 48.7146 13.4938C47.7465 12.5257 46.5778 12.0417 45.2083 12.0417C44.6889 12.0417 44.1931 12.1362 43.7208 12.325C43.2486 12.5139 42.8236 12.7737 42.4458 13.1042L31.4667 23.0209C30.8292 23.5875 30.109 24.0243 29.3062 24.3313C28.5035 24.6382 27.6653 24.7917 26.7917 24.7917Z" fill="#FFA150"/>
</g>
<defs>
<clipPath id="clip0_122_17">
<rect width="34" height="34" fill="white" transform="translate(19)"/>
</clipPath>
</defs>
</svg>
