<svg width="36" height="36" viewBox="0 0 36 36" fill="none" xmlns="http://www.w3.org/2000/svg">
<g clip-path="url(#clip0_2_86)">
<path d="M0 27V24.6375C0 23.5625 0.55 22.6875 1.65 22.0125C2.75 21.3375 4.2 21 6 21C6.325 21 6.6375 21.0063 6.9375 21.0188C7.2375 21.0313 7.525 21.0625 7.8 21.1125C7.45 21.6375 7.1875 22.1875 7.0125 22.7625C6.8375 23.3375 6.75 23.9375 6.75 24.5625V27H0ZM9 27V24.5625C9 23.7625 9.21875 23.0313 9.65625 22.3688C10.0938 21.7063 10.7125 21.125 11.5125 20.625C12.3125 20.125 13.2688 19.75 14.3813 19.5C15.4938 19.25 16.7 19.125 18 19.125C19.325 19.125 20.5438 19.25 21.6562 19.5C22.7688 19.75 23.725 20.125 24.525 20.625C25.325 21.125 25.9375 21.7063 26.3625 22.3688C26.7875 23.0313 27 23.7625 27 24.5625V27H9ZM29.25 27V24.5625C29.25 23.9125 29.1688 23.3 29.0063 22.725C28.8438 22.15 28.6 21.6125 28.275 21.1125C28.55 21.0625 28.8313 21.0313 29.1188 21.0188C29.4063 21.0063 29.7 21 30 21C31.8 21 33.25 21.3313 34.35 21.9938C35.45 22.6563 36 23.5375 36 24.6375V27H29.25ZM12.1875 24H23.85C23.6 23.5 22.9062 23.0625 21.7688 22.6875C20.6313 22.3125 19.375 22.125 18 22.125C16.625 22.125 15.3688 22.3125 14.2313 22.6875C13.0938 23.0625 12.4125 23.5 12.1875 24ZM6 19.5C5.175 19.5 4.46875 19.2063 3.88125 18.6188C3.29375 18.0312 3 17.325 3 16.5C3 15.65 3.29375 14.9375 3.88125 14.3625C4.46875 13.7875 5.175 13.5 6 13.5C6.85 13.5 7.5625 13.7875 8.1375 14.3625C8.7125 14.9375 9 15.65 9 16.5C9 17.325 8.7125 18.0312 8.1375 18.6188C7.5625 19.2063 6.85 19.5 6 19.5ZM30 19.5C29.175 19.5 28.4688 19.2063 27.8813 18.6188C27.2938 18.0312 27 17.325 27 16.5C27 15.65 27.2938 14.9375 27.8813 14.3625C28.4688 13.7875 29.175 13.5 30 13.5C30.85 13.5 31.5625 13.7875 32.1375 14.3625C32.7125 14.9375 33 15.65 33 16.5C33 17.325 32.7125 18.0312 32.1375 18.6188C31.5625 19.2063 30.85 19.5 30 19.5ZM18 18C16.75 18 15.6875 17.5625 14.8125 16.6875C13.9375 15.8125 13.5 14.75 13.5 13.5C13.5 12.225 13.9375 11.1562 14.8125 10.2938C15.6875 9.43125 16.75 9 18 9C19.275 9 20.3438 9.43125 21.2063 10.2938C22.0688 11.1562 22.5 12.225 22.5 13.5C22.5 14.75 22.0688 15.8125 21.2063 16.6875C20.3438 17.5625 19.275 18 18 18ZM18 15C18.425 15 18.7812 14.8563 19.0688 14.5688C19.3563 14.2812 19.5 13.925 19.5 13.5C19.5 13.075 19.3563 12.7188 19.0688 12.4313C18.7812 12.1438 18.425 12 18 12C17.575 12 17.2188 12.1438 16.9313 12.4313C16.6438 12.7188 16.5 13.075 16.5 13.5C16.5 13.925 16.6438 14.2812 16.9313 14.5688C17.2188 14.8563 17.575 15 18 15Z" fill="white"/>
</g>
<defs>
<clipPath id="clip0_2_86">
<rect width="36" height="36" fill="white"/>
</clipPath>
</defs>
</svg>
