<svg width="24" height="24" viewBox="0 0 24 24" fill="none" xmlns="http://www.w3.org/2000/svg">
<path fill-rule="evenodd" clip-rule="evenodd" d="M8.1 21.2125C9.31667 21.7375 10.6167 22 12 22C13.3833 22 14.6833 21.7375 15.9 21.2125C17.1167 20.6875 18.175 19.975 19.075 19.075C19.975 18.175 20.6875 17.1167 21.2125 15.9C21.7375 14.6833 22 13.3833 22 12C22 10.6167 21.7375 9.31667 21.2125 8.1C20.6875 6.88333 19.975 5.825 19.075 4.925C18.175 4.025 17.1167 3.3125 15.9 2.7875C14.6833 2.2625 13.3833 2 12 2C10.6167 2 9.31667 2.2625 8.1 2.7875C6.88333 3.3125 5.825 4.025 4.925 4.925C4.025 5.825 3.3125 6.88333 2.7875 8.1C2.2625 9.31667 2 10.6167 2 12C2 13.3833 2.2625 14.6833 2.7875 15.9C3.3125 17.1167 4.025 18.175 4.925 19.075C5.825 19.975 6.88333 20.6875 8.1 21.2125ZM17.675 17.675C16.125 19.225 14.2333 20 12 20C9.76667 20 7.875 19.225 6.325 17.675C4.775 16.125 4 14.2333 4 12C4 9.76667 4.775 7.875 6.325 6.325C7.875 4.775 9.76667 4 12 4C14.2333 4 16.125 4.775 17.675 6.325C19.225 7.875 20 9.76667 20 12C20 14.2333 19.225 16.125 17.675 17.675Z" fill="#F8C600"/>
<path d="M11.1 19H12.85V17.75C13.6833 17.6 14.4 17.275 15 16.775C15.6 16.275 15.9 15.5333 15.9 14.55C15.9 13.85 15.7 13.2083 15.3 12.625C14.9 12.0417 14.1 11.5333 12.9 11.1C11.9 10.7667 11.2083 10.475 10.825 10.225C10.4417 9.975 10.25 9.63333 10.25 9.2C10.25 8.76667 10.4042 8.425 10.7125 8.175C11.0208 7.925 11.4667 7.8 12.05 7.8C12.5833 7.8 13 7.92917 13.3 8.1875C13.6 8.44583 13.8167 8.76667 13.95 9.15L15.55 8.5C15.3667 7.91667 15.0292 7.40833 14.5375 6.975C14.0458 6.54167 13.5 6.3 12.9 6.25V5H11.15V6.25C10.3167 6.43333 9.66667 6.8 9.2 7.35C8.73333 7.9 8.5 8.51667 8.5 9.2C8.5 9.98333 8.72917 10.6167 9.1875 11.1C9.64583 11.5833 10.3667 12 11.35 12.35C12.4 12.7333 13.1292 13.075 13.5375 13.375C13.9458 13.675 14.15 14.0667 14.15 14.55C14.15 15.1 13.9542 15.5042 13.5625 15.7625C13.1708 16.0208 12.7 16.15 12.15 16.15C11.6 16.15 11.1125 15.9792 10.6875 15.6375C10.2625 15.2958 9.95 14.7833 9.75 14.1L8.1 14.75C8.33333 15.55 8.69583 16.1958 9.1875 16.6875C9.67917 17.1792 10.3167 17.5167 11.1 17.7V19Z" fill="#FFBB00"/>
<path d="M11.1 19H12.85V17.75C13.6833 17.6 14.4 17.275 15 16.775C15.6 16.275 15.9 15.5333 15.9 14.55C15.9 13.85 15.7 13.2083 15.3 12.625C14.9 12.0417 14.1 11.5333 12.9 11.1C11.9 10.7667 11.2083 10.475 10.825 10.225C10.4417 9.975 10.25 9.63333 10.25 9.2C10.25 8.76667 10.4042 8.425 10.7125 8.175C11.0208 7.925 11.4667 7.8 12.05 7.8C12.5833 7.8 13 7.92917 13.3 8.1875C13.6 8.44583 13.8167 8.76667 13.95 9.15L15.55 8.5C15.3667 7.91667 15.0292 7.40833 14.5375 6.975C14.0458 6.54167 13.5 6.3 12.9 6.25V5H11.15V6.25C10.3167 6.43333 9.66667 6.8 9.2 7.35C8.73333 7.9 8.5 8.51667 8.5 9.2C8.5 9.98333 8.72917 10.6167 9.1875 11.1C9.64583 11.5833 10.3667 12 11.35 12.35C12.4 12.7333 13.1292 13.075 13.5375 13.375C13.9458 13.675 14.15 14.0667 14.15 14.55C14.15 15.1 13.9542 15.5042 13.5625 15.7625C13.1708 16.0208 12.7 16.15 12.15 16.15C11.6 16.15 11.1125 15.9792 10.6875 15.6375C10.2625 15.2958 9.95 14.7833 9.75 14.1L8.1 14.75C8.33333 15.55 8.69583 16.1958 9.1875 16.6875C9.67917 17.1792 10.3167 17.5167 11.1 17.7V19Z" fill="#FFE08B"/>
</svg>
