<svg width="24" height="24" viewBox="0 0 24 24" fill="none" xmlns="http://www.w3.org/2000/svg">
<path d="M8.7 12.925L10.075 13.85L12 12.875L13.925 13.85L15.25 12.975L14.25 11H9.65L8.7 12.925ZM5.225 20H18.75L16.15 14.775L14.075 16.15L12 15.125L9.925 16.15L7.8 14.75L5.225 20ZM2 22L7.85 10.125C8.01667 9.79167 8.2625 9.52083 8.5875 9.3125C8.9125 9.10417 9.26667 9 9.65 9H11V2H18L17 4L18 6H13V9H14.25C14.6333 9 14.9833 9.1 15.3 9.3C15.6167 9.5 15.8667 9.76667 16.05 10.1L22 22H2Z" fill="#78A722"/>
<path d="M11 2V9H13V6H18L17 4L18 2H11Z" fill="#B32E17"/>
</svg>
